<?xml version="1.0" encoding="UTF-8"?>
<svg width="2606px" height="470px" viewBox="0 0 2606 470" version="1.1" xmlns="http://www.w3.org/2000/svg" xmlns:xlink="http://www.w3.org/1999/xlink">
    <title>edgeconnex</title>
    <defs>
        <polygon id="path-1" points="0.06 0.805 1432.75 0.805 1432.75 470 0.06 470"></polygon>
    </defs>
    <g stroke="none" stroke-width="1" fill="none" fill-rule="evenodd">
        <path d="M1213.04,272.683 L1213.04,221.594 C1213.04,194.698 1190.41,175.489 1171.95,175.489 C1155.05,175.489 1142.74,185.093 1142.74,212.005 L1142.74,288.056 C1142.74,308.791 1152.77,320.706 1173.1,320.706 C1193.11,320.706 1213.04,300.727 1213.04,272.683 M1100.9,290.366 L1100.9,210.449 C1100.9,172.06 1128.56,145.179 1162.74,145.179 C1181.95,145.179 1201.17,155.916 1212.27,172.438 L1212.65,172.438 L1212.65,75.258 L1254.92,75.258 L1254.92,349.127 L1216.49,349.127 L1214.58,317.248 L1213.44,317.248 C1200.37,341.455 1179.25,353.734 1156.96,353.734 C1118.2,353.734 1100.9,324.15 1100.9,290.366" fill="#41444D"></path>
        <path d="M1631.35,287.277 L1631.35,218.549 C1631.35,177.034 1653.61,152.479 1691.27,152.479 C1731.61,152.479 1748.49,175.494 1748.49,202.012 L1748.49,210.847 L1737.74,210.847 L1737.74,201.242 C1737.74,187.032 1727.73,162.446 1690.49,162.446 C1654.4,162.446 1642.89,189.72 1642.89,218.911 L1642.89,287.669 C1642.89,321.075 1655.56,343.741 1692.39,343.741 C1730.83,343.741 1737.74,321.075 1737.74,304.191 L1737.74,293.423 L1748.49,293.423 L1748.49,303.028 C1748.49,330.694 1734.66,353.362 1692.03,353.362 C1651.32,353.362 1631.35,329.532 1631.35,287.277" fill="#41444D"></path>
        <path d="M1893.69,283.823 L1893.69,218.553 C1893.69,188.199 1879.87,162.45 1842.99,162.45 C1806.08,162.45 1793.04,189.332 1793.04,220.456 L1793.04,284.215 C1793.04,320.701 1807.64,342.977 1844.52,342.977 C1882.18,342.977 1893.69,316.473 1893.69,283.823 M1781.56,286.133 L1781.56,220.456 C1781.56,178.217 1805.72,152.468 1843.37,152.468 C1882.94,152.468 1905.6,177.809 1905.6,219.686 L1905.6,284.578 C1905.6,329.536 1882.18,353.366 1843.75,353.366 C1803.43,353.366 1781.56,328.01 1781.56,286.133" fill="#41444D"></path>
        <path d="M1948.97,157.066 L1959.36,157.066 L1959.36,192.404 L1959.75,192.404 C1971.26,165.524 1995.87,152.475 2020.83,152.475 C2051.57,152.475 2067.69,173.588 2067.69,197.781 L2067.69,349.129 L2055.78,349.129 L2055.78,204.319 C2055.78,172.817 2039.62,162.82 2016.59,162.82 C1988.92,162.82 1960.52,190.486 1960.52,223.136 L1960.52,349.129 L1948.97,349.129 L1948.97,157.066" fill="#41444D"></path>
        <path d="M2117.99,157.066 L2128.38,157.066 L2128.38,192.404 L2128.74,192.404 C2140.28,165.524 2164.85,152.475 2189.82,152.475 C2220.54,152.475 2236.7,173.588 2236.7,197.781 L2236.7,349.129 L2224.8,349.129 L2224.8,204.319 C2224.8,172.817 2208.64,162.82 2185.61,162.82 C2157.95,162.82 2129.52,190.486 2129.52,223.136 L2129.52,349.129 L2117.99,349.129 L2117.99,157.066" fill="#41444D"></path>
        <polyline fill="#41444D" points="2470.99 249.645 2419.12 157.072 2432.96 157.072 2479.01 241.958 2525.52 157.072 2537.83 157.072 2485.99 249.253 2541.65 349.12 2528.59 349.12 2477.92 256.939 2426.45 349.12 2414.12 349.12 2470.99 249.645"></polyline>
        <path d="M967.692,213.525 C967.692,194.316 978.837,176.647 1002.29,176.647 C1028.02,176.647 1036.87,195.479 1036.87,214.702 L1036.87,231.225 L967.692,231.225 L967.692,213.525 Z M1036.42,291.405 C1034.35,307.85 1024.78,322.242 1002.29,322.242 C978.837,322.242 967.692,304.558 967.692,285.364 L967.692,260.779 L1077.16,260.779 L1077.16,218.132 C1077.16,172.449 1047.99,145.175 1003.45,145.175 C960.821,145.175 925.453,173.203 925.453,225.047 L925.453,273.857 C925.453,325.7 960.821,353.744 1003.45,353.744 C1044.39,353.744 1072.32,330.669 1076.56,291.405 L1036.42,291.405 Z" fill="#41444D"></path>
        <path d="M1498.05,213.525 C1498.05,194.316 1509.19,176.647 1532.63,176.647 C1558.35,176.647 1567.17,195.479 1567.17,214.702 L1567.17,231.225 L1498.05,231.225 L1498.05,213.525 Z M1566.78,291.405 C1564.72,307.85 1555.1,322.242 1532.63,322.242 C1509.19,322.242 1498.05,304.558 1498.05,285.364 L1498.05,260.779 L1607.54,260.779 L1607.54,218.132 C1607.54,172.449 1578.31,145.175 1533.81,145.175 C1491.15,145.175 1455.79,173.203 1455.79,225.047 L1455.79,273.857 C1455.79,325.7 1491.15,353.744 1533.81,353.744 C1574.75,353.744 1602.66,330.669 1606.89,291.405 L1566.78,291.405 Z" fill="#41444D"></path>
        <path d="M2284.12,218.136 C2284.12,192.403 2297.94,162.819 2333.29,162.819 C2371.7,162.819 2383.2,190.485 2383.2,216.612 L2383.2,242.752 L2284.12,242.752 L2284.12,218.136 Z M2383.2,284.901 L2383.2,289.19 C2383.2,315.331 2371.7,342.967 2333.29,342.967 C2297.94,342.967 2284.12,313.398 2284.12,287.664 L2284.12,252.916 L2383.2,252.916 L2383.2,253.097 L2394.35,253.097 L2394.35,218.136 C2394.35,177.815 2373.96,152.474 2335.97,152.474 C2297.94,152.474 2272.22,177.438 2272.22,222.365 L2272.22,283.467 C2272.22,328.394 2297.94,353.372 2335.97,353.372 C2373.96,353.372 2394.35,328.001 2394.35,287.664 L2394.35,284.901 L2383.2,284.901 Z" fill="#41444D"></path>
        <g>
            <mask id="mask-2" fill="white">
                <use xlink:href="#path-1"></use>
            </mask>
            <path d="M1390.51,260.006 C1390.51,289.183 1370.15,311.489 1350.55,311.489 C1328.31,311.489 1320.6,296.522 1320.6,277.706 L1320.6,213.16 C1320.6,188.937 1330.22,175.512 1351.34,175.512 C1368.64,175.512 1390.51,192.788 1390.51,219.684 L1390.51,260.006 Z M1397.06,149.78 L1395.51,177.43 L1395.11,177.43 C1385.51,156.303 1362.1,145.174 1342.12,145.174 C1308.7,145.174 1278.73,168.203 1278.73,206.607 L1278.73,284.576 C1278.73,318.405 1298.71,342.975 1337.12,342.975 C1357.09,342.975 1379,332.238 1390.51,308.03 L1390.9,308.03 L1390.9,350.284 C1390.9,374.825 1377.91,385.728 1354.05,387.239 L1351.49,387.239 C1336.64,386.754 1327.73,379.778 1322.94,370.188 L1281.34,370.188 C1290.01,401.026 1315.82,418.785 1351.67,418.876 L1351.85,418.876 C1352.03,418.876 1352.18,418.846 1352.39,418.846 C1403.81,418.604 1432.75,392.69 1432.75,341.858 L1432.75,149.78 L1397.06,149.78 Z" fill="#41444D" mask="url(#mask-2)"></path>
            <path d="M234.589,0.805 C105.017,0.805 0,105.823 0,235.396 C0,364.952 105.017,470 234.589,470 C335.393,470 421.337,406.392 454.516,317.095 L365.068,317.095 C337.825,360.543 289.65,389.538 234.589,389.538 C149.477,389.538 80.417,320.508 80.417,235.396 C80.417,150.282 149.477,81.267 234.589,81.267 C307.531,81.267 368.526,131.979 384.489,200.057 L190.598,200.057 L190.598,270.733 L466.522,270.733 C468.273,259.21 469.179,247.401 469.179,235.396 C469.179,105.823 364.132,0.805 234.589,0.805" fill="#2A507B" mask="url(#mask-2)"></path>
            <path d="M585.08,0.805 C526.108,0.805 472.301,22.597 431.058,58.509 C449.271,78.716 464.358,101.776 475.669,126.89 C503.607,98.724 542.297,81.267 585.08,81.267 C670.193,81.267 739.193,150.282 739.193,235.396 C739.193,320.508 670.193,389.508 585.08,389.508 C542.297,389.508 503.607,372.066 475.669,343.902 C464.358,369.015 449.271,392.075 431.058,412.266 C472.271,448.193 526.108,470 585.08,470 C714.653,470 819.67,364.952 819.67,235.38 C819.67,105.823 714.653,0.805 585.08,0.805" fill="#1E90C3" mask="url(#mask-2)"></path>
        </g>
        <path d="M2574.83,122.695 C2577.98,122.695 2579.95,120.883 2579.95,118.18 C2579.95,114.858 2577.85,113.499 2574.83,113.499 L2569.41,113.499 L2569.41,122.695 L2574.83,122.695 Z M2560.65,106.718 L2576.04,106.718 C2582.8,106.718 2588.71,110.478 2588.71,117.561 C2588.71,121.94 2586.47,126.003 2582.05,127.83 L2589.88,141.543 L2580.55,141.543 L2573.6,129.023 L2569.41,129.023 L2569.41,141.543 L2560.65,141.543 L2560.65,106.718 Z M2597.74,124.961 C2597.74,108.968 2586.74,99.016 2573.47,99.016 C2560.19,99.016 2549.5,108.832 2549.5,124.961 C2549.5,140.938 2560.83,150.437 2573.47,150.437 C2586.14,150.437 2597.74,140.772 2597.74,124.961 Z M2541.65,124.961 C2541.65,107.323 2554.95,92.839 2573.47,92.839 C2592.92,92.839 2605.59,107.323 2605.59,124.961 C2605.59,142.298 2592.62,157.067 2573.47,157.067 C2553.58,157.067 2541.65,142.298 2541.65,124.961 Z" fill="#41444D"></path>
    </g>
</svg>
