<svg xmlns="http://www.w3.org/2000/svg" xmlns:xlink="http://www.w3.org/1999/xlink" id="Layer_1" x="0px" y="0px" viewBox="0 0 414.1 134.1" style="enable-background:new 0 0 414.1 134.1;" xml:space="preserve">
<style type="text/css">
	.st0{fill:#FFFFFF;}
	.st1{fill:#EFE7C5;}
	.st2{fill:#4C4B3D;}
	.st3{fill:url(#SVGID_1_);}
	.st4{fill:#F7F3E2;}
	.st5{fill:#DB0505;}
	.st6{fill:url(#SVGID_2_);}
	.st7{fill:#990000;}
	.st8{fill:#510303;}
	.st9{fill:none;stroke:#C6C4C4;stroke-width:0.2948;stroke-miterlimit:10;}
	.st10{fill:#FFFFFF;stroke:#C6C4C4;stroke-width:0.3933;stroke-miterlimit:10;}
	.st11{fill:url(#SVGID_3_);}
	.st12{fill:url(#SVGID_4_);}
	.st13{fill:none;stroke:#4C4B3D;stroke-width:0.1706;stroke-miterlimit:10;}
	.st14{opacity:0.2;}
	.st15{opacity:0.62;fill:none;stroke:#4C4B3D;stroke-width:0.1706;stroke-miterlimit:10;}
	.st16{opacity:0.2;fill:none;stroke:#4C4B3D;stroke-width:0.1706;stroke-miterlimit:10;}
	.st17{fill:none;stroke:#C6C4C4;stroke-width:0.3933;stroke-miterlimit:10;}
	.st18{font-family:'MyriadPro-Regular';}
	.st19{font-size:6.2164px;}
</style>
<g>
	<g>
		<path class="st0" d="M131.8,57.2l-2.1,4.3c-2.4-1.5-5.3-2.4-7.7-2.4c-2.3,0-3.9,0.8-3.9,2.7c0,4.9,14.3,2.3,14.2,12    c0,5.5-4.9,8-10.3,8c-3.9,0-8.1-1.3-10.8-3.7l2.1-4.1c2.3,2.1,6,3.3,9,3.3c2.5,0,4.4-0.9,4.4-2.9c0-5.5-14.1-2.4-14.1-12.1    c0-5.4,4.7-7.8,9.9-7.8C125.8,54.4,129.3,55.5,131.8,57.2z"></path>
		<path class="st0" d="M162.7,70.3h-20.2c0.9,4.1,4.1,6.7,8.3,6.7c2.9,0,5.6-1.1,7.6-3.1l3.1,3.3c-2.6,2.9-6.4,4.5-11.1,4.5    c-8.3,0-13.7-5.5-13.7-13.5c0-8.1,5.6-13.6,13.5-13.6C159.6,54.5,163.4,60.6,162.7,70.3z M157.6,66.1c-0.2-4.3-3.1-7-7.5-7    c-4.2,0-7.2,2.7-7.9,7H157.6z"></path>
		<path class="st0" d="M173.3,60.1c1.8-3.6,5-5.5,9.3-5.5v5.5c-5.4-0.3-8.8,2.9-9.3,7.5v14h-5.8V54.8h5.8V60.1z"></path>
		<path class="st0" d="M197.1,81.5l-10.4-26.8h6l7.5,21.1l7.4-21.1h5.8l-10.3,26.8H197.1z"></path>
		<path class="st0" d="M241,70.3h-20.2c0.9,4.1,4.1,6.7,8.3,6.7c2.9,0,5.6-1.1,7.6-3.1l3.1,3.3c-2.6,2.9-6.4,4.5-11.1,4.5    c-8.3,0-13.7-5.5-13.7-13.5c0-8.1,5.6-13.6,13.5-13.6C237.9,54.5,241.7,60.6,241,70.3z M235.9,66.1c-0.2-4.3-3.1-7-7.5-7    c-4.2,0-7.2,2.7-7.9,7H235.9z"></path>
		<path class="st0" d="M251.8,60c1.8-3.6,5-5.5,9.3-5.5V60c-5.4-0.3-8.8,2.9-9.3,7.5v14H246V54.7h5.8V60z"></path>
		<path class="st0" d="M274.8,52.5v3.2h6.5V60h-6.5v21.5H269V60h-3.5v-4.3h3.5v-2.6c0-6.2,4.6-9.2,9.2-9.2c2.2,0,4.3,0.6,6,1.9    l-2.2,4.4c-1.1-0.8-2.5-1.3-3.7-1.3C276.4,48.9,274.8,50,274.8,52.5z"></path>
		<path class="st0" d="M302.6,78.2c-1.9,2.4-5,3.5-8.9,3.5c-5.8,0-9.4-3.6-9.4-8.3c0-4.9,3.7-8,10.1-8.1h8.1v-0.8    c0-3.4-2.2-5.4-6.4-5.4c-2.6,0-5.2,0.9-7.9,2.7l-2.4-4c3.7-2.2,6.4-3.4,11.5-3.4c6.9,0,10.8,3.5,10.8,9.4l0.1,17.6h-5.7V78.2z     M302.6,72.1v-2.5h-7.3c-3.8,0-5.5,1-5.5,3.6c0,2.4,2,4,5.2,4C299.1,77.2,302.3,75,302.6,72.1z"></path>
		<path class="st0" d="M318.9,60c1.8-3.6,5-5.5,9.3-5.5V60c-5.4-0.3-8.8,2.9-9.3,7.5v14h-5.8V54.7h5.8V60z"></path>
		<path class="st0" d="M377.8,64.8v16.7H372V66.4c0-4.1-2.4-6.5-6.3-6.5c-4.6,0.2-7.4,3.7-7.4,8.4v13.2h-5.8V66.4    c0-4.1-2.4-6.5-6.3-6.5c-4.6,0.2-7.5,3.7-7.5,8.4v13.2H333V54.7h5.7v5.2c1.9-3.8,5.3-5.4,9.7-5.4c4.8,0,8.1,2.4,9.3,6.4    c1.7-4.5,5.3-6.4,10.2-6.4C374.1,54.5,377.8,58.4,377.8,64.8z"></path>
	</g>
</g>
<polygon class="st1" points="82.9,52.2 79,50.3 72,56.2 75.6,58.2 "></polygon>
<polygon class="st2" points="76.3,75.5 75.6,58.2 72.3,56.2 73.3,74 "></polygon>
<polygon class="st1" points="58,72.7 66.6,78.8 75.6,70.4 69.4,66.4 "></polygon>
<polygon class="st2" points="66.6,78.8 62.6,76.2 64,92.9 66.6,94 "></polygon>
<linearGradient id="SVGID_1_" gradientUnits="userSpaceOnUse" x1="41.527" y1="87.4687" x2="41.527" y2="46.8478">
	<stop offset="0.2071" style="stop-color:#A09F7D"></stop>
	<stop offset="0.2643" style="stop-color:#B6B595"></stop>
	<stop offset="0.35" style="stop-color:#D0CFB1"></stop>
	<stop offset="0.4421" style="stop-color:#E5E3C7"></stop>
	<stop offset="0.5424" style="stop-color:#F4F2D7"></stop>
	<stop offset="0.6567" style="stop-color:#FCFAE0"></stop>
	<stop offset="0.816" style="stop-color:#FFFDE3"></stop>
</linearGradient>
<polygon class="st3" points="27.7,69.1 55.2,46.8 55.4,68.9 45.8,87.5 "></polygon>
<polygon class="st1" points="56.6,47.5 36,58.1 55.5,74.4 75,59 "></polygon>
<polygon class="st2" points="55.5,73 54.5,73 36.4,57.9 46,53.5 55.4,55.3 76.3,42.1 82.9,44.4 "></polygon>
<polygon class="st4" points="75.6,58.2 82.9,52.2 82.9,74.3 66.6,94 66.6,78.8 75.6,70.4 "></polygon>
<line class="st5" x1="55.5" y1="51.6" x2="55.5" y2="59.1"></line>
<path class="st5" d="M55.5,84.4"></path>
<path class="st5" d="M55.5,72.7"></path>
<path class="st5" d="M55.5,59.7"></path>
<path class="st5" d="M55.5,87.8"></path>
<line class="st5" x1="55.5" y1="87.8" x2="55.5" y2="106.1"></line>
<path class="st5" d="M55.5,84.4"></path>
<polygon class="st1" points="44.6,79.2 58.1,74.7 65.9,79.6 55.5,88.6 "></polygon>
<linearGradient id="SVGID_2_" gradientUnits="userSpaceOnUse" x1="58.5128" y1="32.6609" x2="102.3488" y2="1.9666">
	<stop offset="0" style="stop-color:#F6F5EC"></stop>
	<stop offset="0.2855" style="stop-color:#D9D9D1"></stop>
	<stop offset="0.5591" style="stop-color:#B9BAB4"></stop>
</linearGradient>
<polygon class="st6" points="55.5,28 27.8,34.7 27.8,34.7 55.6,52 83,35 55.5,28 "></polygon>
<polygon class="st7" points="27.7,57.9 36,65.8 35.8,39.7 27.8,34.7 "></polygon>
<polygon class="st5" points="55.5,84.6 55.5,74.4 65.7,66.4 75,59 75,69.3 55.5,86.5 55.5,84.6 "></polygon>
<polygon class="st8" points="35.8,49 38.3,49.7 37.2,57.6 36,58.1 "></polygon>
<path class="st9" d="M85.1,76.9"></path>
<path class="st10" d="M140,62.8"></path>
<path class="st9" d="M85.1,72.7"></path>
<path class="st9" d="M55.2,101.7"></path>
<linearGradient id="SVGID_3_" gradientUnits="userSpaceOnUse" x1="55.4509" y1="58.746" x2="82.9344" y2="58.746">
	<stop offset="0" style="stop-color:#B9BAB4"></stop>
	<stop offset="9.688757e-02" style="stop-color:#CECEC7"></stop>
	<stop offset="0.2164" style="stop-color:#E0E0D8"></stop>
	<stop offset="0.3603" style="stop-color:#EDECE3"></stop>
	<stop offset="0.5514" style="stop-color:#F4F3EA"></stop>
	<stop offset="0.98" style="stop-color:#F6F5EC"></stop>
</linearGradient>
<polygon class="st11" points="82.9,44.4 55.5,63.9 55.5,63 55.5,73.1 55.5,73.1 82.9,51.2 "></polygon>
<linearGradient id="SVGID_4_" gradientUnits="userSpaceOnUse" x1="45.9044" y1="50.2798" x2="45.9044" y2="73.0373">
	<stop offset="0" style="stop-color:#FFFDE3"></stop>
	<stop offset="7.244033e-02" style="stop-color:#EFEED2"></stop>
	<stop offset="0.2317" style="stop-color:#D3D1B4"></stop>
	<stop offset="0.3988" style="stop-color:#BCBB9B"></stop>
	<stop offset="0.5749" style="stop-color:#ACAB8A"></stop>
	<stop offset="0.7661" style="stop-color:#A3A280"></stop>
	<stop offset="1" style="stop-color:#A09F7D"></stop>
</linearGradient>
<polygon class="st12" points="36.4,50.3 36.4,57.2 55.5,73 55.5,63.9 "></polygon>
<polygon class="st2" points="55.5,86.5 54.3,86.9 45.5,78.9 46.4,78.6 "></polygon>
<path class="st4" d="M55.5,100.7"></path>
<path class="st13" d="M66.6,94"></path>
<path class="st13" d="M66.6,78.8"></path>
<g class="st14">
	<line class="st15" x1="65.9" y1="78.5" x2="65.9" y2="84.1"></line>
	<line class="st15" x1="65.7" y1="66.4" x2="65.9" y2="77.3"></line>
	<line class="st15" x1="65.7" y1="55.8" x2="65.7" y2="65"></line>
	<polyline class="st15" points="38.4,32.1 66,45.6 65.9,55.3  "></polyline>
	<line class="st15" x1="75" y1="70.9" x2="75" y2="83.8"></line>
	<polyline class="st15" points="36.1,86.3 36,77.5 40.7,73.6  "></polyline>
	<polyline class="st15" points="46,35.8 35.8,39.6 36,69.4  "></polyline>
	<line class="st15" x1="62.4" y1="29.7" x2="54.7" y2="32.5"></line>
	<line class="st15" x1="44.6" y1="86.3" x2="44.6" y2="95.6"></line>
	<line class="st15" x1="44.6" y1="45" x2="44.6" y2="54.3"></line>
	<polyline class="st15" points="47.5,29.9 75,39.9 75,39.9  "></polyline>
</g>
<polygon class="st1" points="36.4,50.3 38.3,49.7 55.5,61.7 81,43.7 82.9,44.4 55.5,63.9 "></polygon>
<polygon class="st5" points="55.5,62.7 75.1,49 83,43.4 83,35 55.5,52 "></polygon>
<polygon class="st7" points="27.8,34.7 27.7,62.1 55.5,86.5 55.5,74.4 36,58.1 35.8,49 55.4,62.7 55.5,52 "></polygon>
<line class="st16" x1="35.8" y1="39.7" x2="35.8" y2="49"></line>
<line class="st16" x1="36" y1="69.4" x2="36" y2="58.1"></line>
<line class="st16" x1="66" y1="45.6" x2="65.7" y2="55.3"></line>
<line class="st16" x1="75.1" y1="49" x2="75" y2="39.9"></line>
<line class="st16" x1="75" y1="50" x2="75" y2="57.6"></line>
<polygon class="st2" points="55.4,62.7 54.5,62.7 36.8,50.1 37.3,50 "></polygon>
<line class="st7" x1="54.6" y1="106.5" x2="54.6" y2="106.5"></line>
<path class="st7" d="M55.5,106.5v-0.3v-0.1l0-17.5l-10.5-9.2c-0.1-0.1-0.3,0-0.3,0.1v6.3c0,0.1-0.2,0.2-0.3,0.1L28,69.4  c-0.1-0.1-0.3,0-0.3,0.1V77c0,0,0,0.1,0,0.1l26.8,29.1"></path>
<path class="st5" d="M56.4,106.2c-0.3,0.4-0.9,0.4-0.9,0.4l0-0.3v-0.2l0-17.5l10.5-9l0,4.4l0,10.7L56.4,106.2"></path>
<polygon class="st7" points="27.7,70.3 27.7,69.1 28.5,70 "></polygon>
<polygon class="st7" points="44.6,79.9 44.6,79.2 45.1,79.6 "></polygon>
<path class="st7" d="M55.5,106.6c-0.7,0-1.3-0.6-1.3-1.3c0-0.7,0.6-1.3,1.3-1.3"></path>
<path class="st5" d="M55.5,104c0.7,0,1.3,0.6,1.3,1.3c0,0.7-0.6,1.3-1.3,1.3"></path>
<path class="st17" d="M201.3,140"></path>
<text transform="matrix(1 0 0 1 380.5978 59.6931)" class="st0 st18 st19">TM</text>
</svg>