<?xml version="1.0" encoding="UTF-8"?>
<svg xmlns="http://www.w3.org/2000/svg" xmlns:xlink="http://www.w3.org/1999/xlink" width="75pt" height="58pt" viewBox="0 0 75 58" version="1.1">
<g id="surface1">
<path style=" stroke:none;fill-rule:evenodd;fill:rgb(35.299683%,36.499023%,36.898804%);fill-opacity:1;" d="M 24.808594 36.558594 C 24.824219 36.421875 25.421875 34.824219 25.476563 34.753906 L 26.140625 36.558594 Z M 19.660156 34.121094 L 20.15625 34.148438 L 20.15625 38.625 L 19.664063 38.660156 L 19.664063 38.84375 L 21.316406 38.839844 L 21.316406 38.660156 L 20.785156 38.625 C 20.785156 38.402344 20.753906 36.628906 20.796875 36.507813 C 20.894531 36.46875 20.894531 36.480469 20.972656 36.578125 L 22.585938 38.425781 C 23.046875 38.96875 22.847656 38.824219 23.441406 38.828125 L 24.589844 38.832031 L 24.589844 38.644531 C 24.441406 38.597656 24.246094 38.652344 24.113281 38.582031 C 24.058594 38.441406 24.65625 36.992188 24.730469 36.714844 L 26.210938 36.714844 C 26.320313 37.105469 26.867188 38.359375 26.878906 38.597656 L 26.300781 38.640625 L 26.292969 38.84375 C 26.90625 38.820313 27.292969 38.820313 27.90625 38.84375 C 27.910156 38.769531 27.917969 38.691406 27.894531 38.621094 C 27.558594 38.605469 27.566406 38.457031 27.457031 38.183594 C 27.367188 37.96875 27.289063 37.769531 27.207031 37.554688 L 25.824219 34.105469 C 25.738281 33.894531 25.761719 33.863281 25.660156 33.835938 C 25.566406 33.910156 24.40625 37.054688 24.25 37.453125 C 23.808594 38.574219 23.882813 38.832031 23.347656 38.339844 L 22.601563 37.53125 C 22.546875 37.464844 22.539063 37.453125 22.46875 37.382813 L 21.886719 36.722656 C 21.765625 36.578125 21.375 36.191406 21.3125 36.074219 L 23.074219 34.496094 C 23.335938 34.28125 23.382813 34.238281 23.703125 34.171875 L 23.816406 34.140625 L 23.804688 33.9375 L 22.429688 33.9375 L 22.433594 34.121094 L 23.003906 34.1875 C 22.996094 34.335938 22.832031 34.421875 22.742188 34.5 C 22.640625 34.585938 22.566406 34.679688 22.46875 34.765625 C 22.414063 34.8125 22.367188 34.851563 22.316406 34.898438 C 22.089844 35.113281 20.917969 36.242188 20.78125 36.332031 C 20.769531 35.9375 20.753906 34.277344 20.804688 34.160156 C 21.152344 34.035156 21.339844 34.300781 21.308594 33.941406 L 19.667969 33.9375 L 19.660156 34.121094 "/>
<path style=" stroke:none;fill-rule:evenodd;fill:rgb(35.299683%,36.499023%,36.898804%);fill-opacity:1;" d="M 31.734375 35.734375 C 31.707031 35.152344 31.746094 33.859375 31.753906 33.214844 L 32.355469 33.183594 L 32.355469 32.964844 L 30.386719 32.964844 L 30.386719 33.179688 L 31 33.21875 L 31.003906 38.585938 L 30.394531 38.621094 L 30.386719 38.839844 L 32.355469 38.839844 L 32.34375 38.621094 L 31.742188 38.570313 L 31.730469 35.882813 L 34.625 35.882813 L 34.617188 38.585938 L 33.980469 38.621094 L 33.972656 38.839844 L 35.945313 38.839844 L 35.929688 38.621094 L 35.351563 38.582031 L 35.359375 33.214844 L 35.941406 33.183594 L 35.941406 32.964844 L 33.972656 32.964844 L 33.972656 33.179688 L 34.617188 33.21875 C 34.617188 33.6875 34.652344 35.320313 34.617188 35.734375 L 31.734375 35.734375 "/>
<path style=" stroke:none;fill-rule:evenodd;fill:rgb(35.299683%,36.499023%,36.898804%);fill-opacity:1;" d="M 7.476563 34.066406 L 7.476563 34.589844 L 7.574219 34.871094 C 7.765625 35.382813 8.414063 35.769531 8.863281 36.035156 C 9.484375 36.398438 10.195313 36.707031 10.296875 37.410156 C 10.417969 38.253906 9.78125 38.925781 8.914063 38.769531 C 8.5 38.695313 8.226563 38.453125 8.058594 38.207031 C 7.714844 37.707031 7.746094 37.472656 7.621094 37.25 L 7.476563 37.25 L 7.476563 38.160156 C 7.519531 38.261719 7.492188 38.554688 7.5 38.6875 C 7.507813 38.808594 7.484375 38.78125 7.554688 38.828125 C 7.714844 38.871094 7.679688 38.652344 7.957031 38.71875 C 8.085938 38.75 8.226563 38.808594 8.351563 38.84375 C 9.230469 39.09375 10.125 38.949219 10.636719 38.226563 C 10.929688 37.808594 11.042969 37.105469 10.765625 36.585938 C 10.34375 35.789063 9.117188 35.523438 8.402344 34.8125 C 7.65625 34.070313 8.160156 33.074219 8.980469 33.011719 C 9.550781 32.96875 10.023438 33.28125 10.296875 33.746094 C 10.371094 33.875 10.414063 33.957031 10.46875 34.089844 C 10.585938 34.367188 10.503906 34.421875 10.726563 34.375 L 10.726563 32.984375 C 10.351563 32.945313 10.488281 33.128906 10.253906 33.09375 C 10.132813 33.074219 9.929688 32.988281 9.800781 32.949219 C 9.167969 32.761719 8.355469 32.785156 7.90625 33.277344 C 7.78125 33.414063 7.734375 33.4375 7.636719 33.628906 C 7.558594 33.78125 7.535156 33.957031 7.476563 34.066406 "/>
<path style=" stroke:none;fill-rule:evenodd;fill:rgb(35.299683%,36.499023%,36.898804%);fill-opacity:1;" d="M 45.050781 34.152344 C 45.539063 34.082031 45.5625 34.234375 45.539063 33.941406 L 44.269531 33.945313 L 44.265625 34.0625 C 44.265625 34.171875 44.546875 34.132813 44.648438 34.140625 C 44.769531 34.148438 44.761719 34.128906 44.773438 34.238281 L 44.773438 37.75 C 44.695313 37.691406 44.460938 37.367188 44.382813 37.269531 C 43.558594 36.222656 42.613281 35.089844 41.824219 34.042969 C 41.785156 33.996094 41.785156 33.953125 41.703125 33.953125 L 40.71875 33.953125 L 40.726563 34.113281 C 40.929688 34.207031 41.332031 34.28125 41.332031 34.527344 L 41.3125 38.632813 L 40.824219 38.660156 L 40.824219 38.84375 L 42.074219 38.832031 L 42.078125 38.664063 L 41.5625 38.621094 L 41.511719 34.652344 C 41.640625 34.746094 43.136719 36.675781 43.207031 36.765625 L 44.78125 38.753906 C 44.847656 38.839844 44.808594 38.84375 44.929688 38.839844 C 44.988281 38.664063 44.972656 36.835938 44.980469 36.488281 L 45.042969 34.167969 C 45.046875 34.160156 45.050781 34.15625 45.050781 34.152344 "/>
<path style=" stroke:none;fill-rule:evenodd;fill:rgb(35.299683%,36.499023%,36.898804%);fill-opacity:1;" d="M 50.589844 34.117188 C 50.640625 34.101563 50.621094 34.109375 50.652344 34.085938 L 50.640625 33.9375 L 49.378906 33.9375 C 49.355469 34.195313 49.34375 34.109375 49.765625 34.140625 C 49.929688 34.152344 49.882813 34.136719 49.882813 34.578125 C 49.882813 35.421875 49.925781 37.046875 49.886719 37.753906 C 49.75 37.609375 49.636719 37.457031 49.503906 37.285156 C 49.226563 36.929688 46.933594 34.082031 46.871094 33.953125 L 45.832031 33.953125 L 45.84375 34.113281 C 45.960938 34.175781 46.085938 34.183594 46.210938 34.253906 C 46.3125 34.308594 46.441406 34.410156 46.441406 34.550781 L 46.421875 38.628906 L 45.9375 38.660156 L 45.9375 38.84375 L 47.191406 38.828125 L 47.191406 38.664063 L 46.671875 38.621094 L 46.613281 34.660156 C 46.742188 34.734375 46.980469 35.082031 47.074219 35.199219 C 47.214844 35.371094 47.355469 35.546875 47.496094 35.730469 L 49.792969 38.625 C 49.953125 38.832031 49.921875 38.84375 50.042969 38.835938 C 50.085938 38.679688 50.074219 37.753906 50.078125 37.523438 L 50.132813 34.21875 C 50.152344 34.109375 50.246094 34.140625 50.382813 34.136719 L 50.589844 34.117188 "/>
<path style=" stroke:none;fill-rule:evenodd;fill:rgb(35.299683%,36.499023%,36.898804%);fill-opacity:1;" d="M 38.964844 34.113281 C 39.863281 34.113281 39.886719 34.277344 39.886719 35.015625 L 40.101563 35.015625 L 40.101563 33.953125 L 36.515625 33.9375 C 36.515625 34.144531 36.488281 34.117188 36.714844 34.128906 C 36.835938 34.136719 37.019531 34.105469 37.019531 34.214844 L 37.015625 38.625 L 36.515625 38.664063 L 36.515625 38.832031 L 40.273438 38.824219 L 40.359375 37.546875 L 40.230469 37.546875 C 40.15625 37.570313 39.902344 38.535156 39.871094 38.660156 C 39.265625 38.660156 38.546875 38.695313 37.957031 38.65625 C 37.773438 38.644531 37.699219 38.617188 37.660156 38.464844 C 37.625 38.3125 37.617188 36.558594 37.644531 36.339844 C 37.945313 36.339844 38.402344 36.316406 38.683594 36.355469 C 38.875 36.382813 38.882813 36.453125 38.910156 36.648438 L 38.9375 37.21875 L 39.152344 37.21875 C 39.132813 36.386719 39.144531 36.210938 39.179688 35.3125 L 38.980469 35.3125 C 38.921875 36.304688 38.847656 36.179688 37.632813 36.179688 L 37.640625 34.113281 L 38.964844 34.113281 "/>
<path style=" stroke:none;fill-rule:evenodd;fill:rgb(35.299683%,36.499023%,36.898804%);fill-opacity:1;" d="M 53.582031 34.113281 C 54.398438 34.113281 54.507813 34.207031 54.507813 35.015625 L 54.71875 35.015625 L 54.71875 33.953125 L 51.128906 33.933594 L 51.128906 34.117188 C 51.226563 34.121094 51.3125 34.128906 51.414063 34.132813 C 51.53125 34.140625 51.640625 34.113281 51.640625 34.214844 L 51.636719 38.625 L 51.128906 38.660156 L 51.128906 38.84375 C 52.054688 38.785156 53.359375 38.828125 54.359375 38.828125 C 54.738281 38.828125 54.875 38.882813 54.894531 38.738281 C 54.941406 38.429688 54.960938 37.871094 54.972656 37.550781 C 54.785156 37.546875 54.808594 37.542969 54.769531 37.671875 L 54.484375 38.65625 L 52.652344 38.660156 C 52.171875 38.660156 52.253906 38.378906 52.253906 37.960938 C 52.253906 37.550781 52.226563 36.726563 52.25 36.34375 L 52.34375 36.339844 C 53.714844 36.3125 53.496094 36.269531 53.558594 37.21875 L 53.769531 37.21875 C 53.746094 36.535156 53.761719 35.996094 53.78125 35.3125 C 53.546875 35.316406 53.597656 35.300781 53.574219 35.546875 C 53.519531 36.101563 53.472656 36.179688 52.886719 36.179688 L 52.246094 36.171875 L 52.253906 34.121094 L 53.582031 34.113281 "/>
<path style=" stroke:none;fill-rule:evenodd;fill:rgb(35.299683%,36.499023%,36.898804%);fill-opacity:1;" d="M 59.460938 37.511719 C 59.4375 37.746094 59.46875 38.171875 59.476563 38.425781 C 59.480469 38.53125 59.4375 38.828125 59.546875 38.828125 C 59.667969 38.828125 59.613281 38.667969 59.898438 38.746094 C 60.464844 38.90625 60.894531 39.046875 61.484375 38.8125 C 61.890625 38.652344 62.25 38.273438 62.320313 37.738281 C 62.476563 36.566406 61.367188 36.296875 60.539063 35.734375 C 59.226563 34.839844 60.261719 33.59375 61.300781 34.09375 C 61.613281 34.246094 61.820313 34.5625 61.949219 34.867188 C 61.972656 34.929688 61.984375 34.976563 62.007813 35.035156 C 62.054688 35.152344 62.035156 35.125 62.164063 35.125 L 62.164063 33.953125 C 61.710938 33.953125 62.144531 34.171875 61.488281 33.957031 C 59.765625 33.398438 59.046875 34.890625 59.675781 35.769531 C 60.121094 36.394531 61.34375 36.753906 61.667969 37.261719 C 61.933594 37.671875 61.828125 38.277344 61.53125 38.546875 C 61.207031 38.835938 60.628906 38.886719 60.230469 38.597656 C 59.871094 38.34375 59.777344 38.003906 59.585938 37.511719 L 59.460938 37.511719 "/>
<path style=" stroke:none;fill-rule:evenodd;fill:rgb(35.299683%,36.499023%,36.898804%);fill-opacity:1;" d="M 55.703125 38.828125 C 55.902344 38.828125 55.789063 38.828125 55.882813 38.765625 C 56.027344 38.667969 56.15625 38.765625 56.402344 38.839844 C 58.074219 39.316406 58.875 37.933594 58.433594 36.984375 C 58.265625 36.621094 57.878906 36.394531 57.507813 36.183594 C 57.019531 35.90625 56.234375 35.542969 56.15625 34.929688 C 56.027344 33.921875 57.421875 33.582031 58.019531 34.582031 C 58.144531 34.785156 58.152344 34.832031 58.222656 35.027344 C 58.253906 35.113281 58.222656 35.148438 58.382813 35.117188 L 58.382813 33.960938 C 57.945313 33.90625 58.363281 34.1875 57.710938 33.960938 C 55.953125 33.355469 55.238281 35 55.921875 35.800781 C 56.207031 36.132813 56.464844 36.285156 56.910156 36.546875 C 57.554688 36.917969 58.191406 37.230469 58.015625 38.054688 C 57.847656 38.816406 56.921875 39.019531 56.363281 38.535156 C 56.210938 38.40625 56.105469 38.25 55.996094 38.027344 C 55.945313 37.917969 55.910156 37.824219 55.871094 37.710938 C 55.816406 37.546875 55.855469 37.511719 55.675781 37.507813 L 55.703125 38.828125 "/>
<path style=" stroke:none;fill-rule:evenodd;fill:rgb(35.299683%,36.499023%,36.898804%);fill-opacity:1;" d="M 16.105469 38.828125 C 16.289063 38.796875 16.1875 38.675781 16.457031 38.742188 C 16.570313 38.769531 16.675781 38.816406 16.792969 38.847656 C 18.464844 39.308594 19.257813 37.875 18.769531 36.953125 C 18.421875 36.296875 17.335938 36.023438 16.796875 35.484375 C 16.484375 35.175781 16.375 34.65625 16.710938 34.253906 C 17.042969 33.859375 17.898438 33.8125 18.394531 34.613281 C 18.6875 35.085938 18.488281 35.125 18.738281 35.125 L 18.738281 33.953125 C 18.382813 33.953125 18.585938 34.035156 18.402344 34.050781 C 18.328125 34.058594 18.140625 33.980469 18.066406 33.957031 C 16.210938 33.375 15.660156 35.03125 16.265625 35.789063 C 16.792969 36.453125 17.894531 36.730469 18.253906 37.28125 C 18.53125 37.703125 18.378906 38.289063 18.089844 38.550781 C 17.746094 38.859375 17.171875 38.886719 16.789063 38.59375 C 16.296875 38.210938 16.277344 37.695313 16.148438 37.507813 L 16.03125 37.507813 L 16.105469 38.828125 "/>
<path style=" stroke:none;fill-rule:evenodd;fill:rgb(35.299683%,36.499023%,36.898804%);fill-opacity:1;" d="M 13.316406 35.636719 C 13.175781 35.417969 12.464844 34.359375 12.46875 34.195313 C 12.589844 34.136719 12.820313 34.136719 12.984375 34.132813 L 12.980469 33.941406 L 11.269531 33.9375 L 11.277344 34.132813 C 11.570313 34.136719 11.691406 34.238281 11.804688 34.410156 L 12.75 35.839844 C 12.851563 35.996094 12.992188 36.167969 13.074219 36.316406 C 13.152344 36.464844 13.101563 36.851563 13.101563 37.058594 C 13.101563 37.582031 13.101563 38.105469 13.101563 38.628906 L 12.597656 38.664063 L 12.597656 38.839844 C 13.128906 38.863281 13.667969 38.808594 14.21875 38.847656 L 14.21875 38.660156 L 13.714844 38.621094 C 13.671875 38.144531 13.707031 37.5 13.707031 37.007813 C 13.710938 36.101563 13.59375 36.4375 14.074219 35.773438 L 15.089844 34.390625 C 15.207031 34.234375 15.351563 34.140625 15.644531 34.132813 L 15.644531 33.941406 L 14.308594 33.949219 L 14.3125 34.121094 C 14.5 34.15625 14.710938 34.125 14.863281 34.1875 C 14.90625 34.332031 14.855469 34.371094 14.785156 34.472656 L 13.96875 35.644531 C 13.902344 35.738281 13.859375 35.800781 13.796875 35.890625 L 13.667969 36.070313 C 13.636719 36.101563 13.652344 36.089844 13.625 36.113281 C 13.507813 35.972656 13.414063 35.792969 13.316406 35.636719 "/>
<path style=" stroke:none;fill-rule:evenodd;fill:rgb(35.299683%,36.499023%,36.898804%);fill-opacity:1;" d="M 67.039063 34.132813 L 67.039063 33.9375 L 65.730469 33.945313 L 65.734375 34.128906 C 65.933594 34.144531 66.164063 34.109375 66.289063 34.214844 C 66.320313 34.386719 66.101563 34.613281 66.015625 34.742188 C 65.914063 34.898438 65.804688 35.046875 65.699219 35.199219 C 65.476563 35.5 65.265625 35.820313 65.046875 36.121094 C 64.976563 36.054688 64.546875 35.332031 64.449219 35.179688 C 64.339844 35.019531 64.257813 34.878906 64.148438 34.707031 C 64.070313 34.582031 63.882813 34.335938 63.886719 34.183594 C 64.027344 34.140625 64.234375 34.136719 64.410156 34.132813 L 64.402344 33.941406 L 62.695313 33.9375 L 62.699219 34.132813 C 63.148438 34.140625 63.207031 34.382813 63.535156 34.878906 C 63.753906 35.203125 63.957031 35.511719 64.164063 35.828125 C 64.261719 35.976563 64.402344 36.167969 64.484375 36.308594 C 64.574219 36.472656 64.515625 38.367188 64.515625 38.632813 L 64.019531 38.660156 L 64.019531 38.84375 C 64.566406 38.804688 65.113281 38.863281 65.640625 38.839844 L 65.640625 38.660156 L 65.136719 38.625 C 65.117188 38.460938 65.089844 36.363281 65.144531 36.246094 L 66.164063 34.863281 C 66.441406 34.148438 66.585938 34.148438 67.039063 34.132813 "/>
<path style=" stroke:none;fill-rule:evenodd;fill:rgb(87.5%,10.198975%,13.299561%);fill-opacity:1;" d="M 36.433594 14.199219 L 21.152344 14.199219 L 21.152344 29.453125 L 31.34375 29.46875 L 32.808594 29.457031 L 27.957031 27.589844 L 33.578125 27.578125 L 32.859375 29.46875 L 36.433594 29.46875 L 36.433594 20.195313 L 35.722656 22.011719 L 33.957031 26.601563 L 33.59375 27.527344 L 33.585938 21.9375 L 27.949219 21.933594 L 27.933594 27.578125 L 23.542969 25.894531 L 27.109375 16.578125 L 36.441406 20.152344 L 36.433594 14.199219 "/>
</g>
</svg>
